<svg aria-roledescription="er" role="graphics-document document" viewBox="0 0 640.5906982421875 554" style="max-width: 640.591px; background-color: white;" xmlns:xlink="http://www.w3.org/1999/xlink" xmlns="http://www.w3.org/2000/svg" width="100%" id="mermaid-0"><style>#mermaid-0{font-family:"trebuchet ms",verdana,arial,sans-serif;font-size:16px;fill:#000000;}#mermaid-0 .error-icon{fill:#552222;}#mermaid-0 .error-text{fill:#552222;stroke:#552222;}#mermaid-0 .edge-thickness-normal{stroke-width:2px;}#mermaid-0 .edge-thickness-thick{stroke-width:3.5px;}#mermaid-0 .edge-pattern-solid{stroke-dasharray:0;}#mermaid-0 .edge-pattern-dashed{stroke-dasharray:3;}#mermaid-0 .edge-pattern-dotted{stroke-dasharray:2;}#mermaid-0 .marker{fill:#000000;stroke:#000000;}#mermaid-0 .marker.cross{stroke:#000000;}#mermaid-0 svg{font-family:"trebuchet ms",verdana,arial,sans-serif;font-size:16px;}#mermaid-0 .entityBox{fill:#cde498;stroke:#13540c;}#mermaid-0 .attributeBoxOdd{fill:#ffffff;stroke:#13540c;}#mermaid-0 .attributeBoxEven{fill:#f2f2f2;stroke:#13540c;}#mermaid-0 .relationshipLabelBox{fill:hsl(78.1578947368, 58.4615384615%, 84.5098039216%);opacity:0.7;background-color:hsl(78.1578947368, 58.4615384615%, 84.5098039216%);}#mermaid-0 .relationshipLabelBox rect{opacity:0.5;}#mermaid-0 .relationshipLine{stroke:#000000;}#mermaid-0 .entityTitleText{text-anchor:middle;font-size:18px;fill:#000000;}#mermaid-0 :root{--mermaid-font-family:"trebuchet ms",verdana,arial,sans-serif;}</style><g/><defs><marker orient="auto" markerHeight="18" markerWidth="18" refY="9" refX="0" id="ONLY_ONE_START"><path d="M9,0 L9,18 M15,0 L15,18" fill="none" stroke="gray"/></marker></defs><defs><marker orient="auto" markerHeight="18" markerWidth="18" refY="9" refX="18" id="ONLY_ONE_END"><path d="M3,0 L3,18 M9,0 L9,18" fill="none" stroke="gray"/></marker></defs><defs><marker orient="auto" markerHeight="18" markerWidth="30" refY="9" refX="0" id="ZERO_OR_ONE_START"><circle r="6" cy="9" cx="21" fill="white" stroke="gray"/><path d="M9,0 L9,18" fill="none" stroke="gray"/></marker></defs><defs><marker orient="auto" markerHeight="18" markerWidth="30" refY="9" refX="30" id="ZERO_OR_ONE_END"><circle r="6" cy="9" cx="9" fill="white" stroke="gray"/><path d="M21,0 L21,18" fill="none" stroke="gray"/></marker></defs><defs><marker orient="auto" markerHeight="36" markerWidth="45" refY="18" refX="18" id="ONE_OR_MORE_START"><path d="M0,18 Q 18,0 36,18 Q 18,36 0,18 M42,9 L42,27" fill="none" stroke="gray"/></marker></defs><defs><marker orient="auto" markerHeight="36" markerWidth="45" refY="18" refX="27" id="ONE_OR_MORE_END"><path d="M3,9 L3,27 M9,18 Q27,0 45,18 Q27,36 9,18" fill="none" stroke="gray"/></marker></defs><defs><marker orient="auto" markerHeight="36" markerWidth="57" refY="18" refX="18" id="ZERO_OR_MORE_START"><circle r="6" cy="18" cx="48" fill="white" stroke="gray"/><path d="M0,18 Q18,0 36,18 Q18,36 0,18" fill="none" stroke="gray"/></marker></defs><defs><marker orient="auto" markerHeight="36" markerWidth="57" refY="18" refX="39" id="ZERO_OR_MORE_END"><circle r="6" cy="18" cx="9" fill="white" stroke="gray"/><path d="M21,18 Q39,0 57,18 Q39,36 21,18" fill="none" stroke="gray"/></marker></defs><path style="stroke: gray; fill: none;" marker-start="url(#ZERO_OR_ONE_START)" marker-end="url(#ONLY_ONE_END)" d="M85.94378662109375,300L85.94378662109375,312C85.94378662109375,324,85.94378662109375,348,94.43214301343234,368.3333333333333C102.92049940577094,388.6666666666667,119.89721219044812,405.3333333333333,128.3855685827867,413.6666666666667L136.8739249751253,422" class="er relationshipLine"/><path style="stroke: gray; fill: none;" marker-start="url(#ZERO_OR_MORE_START)" marker-end="url(#ONLY_ONE_END)" d="M536.2391357421875,322L536.2391357421875,330.3333333333333C536.2391357421875,338.6666666666667,536.2391357421875,355.3333333333333,536.2391357421875,375.6666666666667C536.2391357421875,396,536.2391357421875,420,536.2391357421875,432L536.2391357421875,444" class="er relationshipLine"/><path style="stroke: gray; fill: none;" marker-start="url(#ZERO_OR_MORE_START)" marker-end="url(#ONLY_ONE_END)" d="M366.0297622680664,107.99686511619912L355.3393974304199,116.66405426349927C344.64903259277344,125.3312434107994,323.26830291748047,142.6656217053997,312.577938079834,165.1661441860332C301.8875732421875,187.66666666666666,301.8875732421875,215.33333333333334,301.8875732421875,229.16666666666666L301.8875732421875,243" class="er relationshipLine"/><path style="stroke: gray; fill: none;" marker-start="url(#ZERO_OR_MORE_START)" marker-end="url(#ONLY_ONE_END)" d="M472.0969467163086,107.99686511619912L482.7873115539551,116.66405426349927C493.47767639160156,125.3312434107994,514.8584060668945,142.6656217053997,525.548770904541,159.6661441860332C536.2391357421875,176.66666666666666,536.2391357421875,193.33333333333334,536.2391357421875,201.66666666666666L536.2391357421875,210" class="er relationshipLine"/><path style="stroke: gray; fill: none;" marker-start="url(#ZERO_OR_MORE_START)" marker-end="url(#ONLY_ONE_END)" d="M301.8875732421875,289L301.8875732421875,302.8333333333333C301.8875732421875,316.6666666666667,301.8875732421875,344.3333333333333,293.3992168498489,366.5C284.9108604575103,388.6666666666667,267.93414767283315,405.3333333333333,259.4457912804946,413.6666666666667L250.95743488815594,422" class="er relationshipLine"/><g transform="translate(114.10379791259766,422 )" id="entity-User-818c511a-4a32-5484-ba70-875d765a9175"><rect height="112" width="159.62376403808594" y="0" x="0" class="er entityBox"/><text style="dominant-baseline: middle; text-anchor: middle; font-size: 12px;" transform="translate(79.81188201904297,12)" y="0" x="0" id="text-entity-User-818c511a-4a32-5484-ba70-875d765a9175" class="er entityLabel">User</text><rect height="22" width="37.39605712890625" y="24" x="0" class="er attributeBoxOdd"/><text style="dominant-baseline: middle; font-size: 10.2px;" transform="translate(5,35)" y="0" x="0" id="text-entity-User-818c511a-4a32-5484-ba70-875d765a9175-attr-1-type" class="er entityLabel">Int</text><rect height="22" width="52.327484130859375" y="24" x="37.39605712890625" class="er attributeBoxOdd"/><text style="dominant-baseline: middle; font-size: 10.2px;" transform="translate(42.39605712890625,35)" y="0" x="0" id="text-entity-User-818c511a-4a32-5484-ba70-875d765a9175-attr-1-name" class="er entityLabel">id</text><rect height="22" width="22.68768310546875" y="24" x="89.72354125976562" class="er attributeBoxOdd"/><text style="dominant-baseline: middle; font-size: 10.2px;" transform="translate(94.72354125976562,35)" y="0" x="0" id="text-entity-User-818c511a-4a32-5484-ba70-875d765a9175-attr-1-key" class="er entityLabel">PK</text><rect height="22" width="47.21253967285156" y="24" x="112.41122436523438" class="er attributeBoxOdd"/><text style="dominant-baseline: middle; font-size: 10.2px;" transform="translate(117.41122436523438,35)" y="0" x="0" id="text-entity-User-818c511a-4a32-5484-ba70-875d765a9175-attr-1-comment" class="er entityLabel"/><rect height="22" width="37.39605712890625" y="46" x="0" class="er attributeBoxEven"/><text style="dominant-baseline: middle; font-size: 10.2px;" transform="translate(5,57)" y="0" x="0" id="text-entity-User-818c511a-4a32-5484-ba70-875d765a9175-attr-2-type" class="er entityLabel">String</text><rect height="22" width="52.327484130859375" y="46" x="37.39605712890625" class="er attributeBoxEven"/><text style="dominant-baseline: middle; font-size: 10.2px;" transform="translate(42.39605712890625,57)" y="0" x="0" id="text-entity-User-818c511a-4a32-5484-ba70-875d765a9175-attr-2-name" class="er entityLabel">email</text><rect height="22" width="22.68768310546875" y="46" x="89.72354125976562" class="er attributeBoxEven"/><text style="dominant-baseline: middle; font-size: 10.2px;" transform="translate(94.72354125976562,57)" y="0" x="0" id="text-entity-User-818c511a-4a32-5484-ba70-875d765a9175-attr-2-key" class="er entityLabel"/><rect height="22" width="47.21253967285156" y="46" x="112.41122436523438" class="er attributeBoxEven"/><text style="dominant-baseline: middle; font-size: 10.2px;" transform="translate(117.41122436523438,57)" y="0" x="0" id="text-entity-User-818c511a-4a32-5484-ba70-875d765a9175-attr-2-comment" class="er entityLabel"/><rect height="22" width="37.39605712890625" y="68" x="0" class="er attributeBoxOdd"/><text style="dominant-baseline: middle; font-size: 10.2px;" transform="translate(5,79)" y="0" x="0" id="text-entity-User-818c511a-4a32-5484-ba70-875d765a9175-attr-3-type" class="er entityLabel">String</text><rect height="22" width="52.327484130859375" y="68" x="37.39605712890625" class="er attributeBoxOdd"/><text style="dominant-baseline: middle; font-size: 10.2px;" transform="translate(42.39605712890625,79)" y="0" x="0" id="text-entity-User-818c511a-4a32-5484-ba70-875d765a9175-attr-3-name" class="er entityLabel">name</text><rect height="22" width="22.68768310546875" y="68" x="89.72354125976562" class="er attributeBoxOdd"/><text style="dominant-baseline: middle; font-size: 10.2px;" transform="translate(94.72354125976562,79)" y="0" x="0" id="text-entity-User-818c511a-4a32-5484-ba70-875d765a9175-attr-3-key" class="er entityLabel"/><rect height="22" width="47.21253967285156" y="68" x="112.41122436523438" class="er attributeBoxOdd"/><text style="dominant-baseline: middle; font-size: 10.2px;" transform="translate(117.41122436523438,79)" y="0" x="0" id="text-entity-User-818c511a-4a32-5484-ba70-875d765a9175-attr-3-comment" class="er entityLabel">nullable</text><rect height="22" width="37.39605712890625" y="90" x="0" class="er attributeBoxEven"/><text style="dominant-baseline: middle; font-size: 10.2px;" transform="translate(5,101)" y="0" x="0" id="text-entity-User-818c511a-4a32-5484-ba70-875d765a9175-attr-4-type" class="er entityLabel">String</text><rect height="22" width="52.327484130859375" y="90" x="37.39605712890625" class="er attributeBoxEven"/><text style="dominant-baseline: middle; font-size: 10.2px;" transform="translate(42.39605712890625,101)" y="0" x="0" id="text-entity-User-818c511a-4a32-5484-ba70-875d765a9175-attr-4-name" class="er entityLabel">password</text><rect height="22" width="22.68768310546875" y="90" x="89.72354125976562" class="er attributeBoxEven"/><text style="dominant-baseline: middle; font-size: 10.2px;" transform="translate(94.72354125976562,101)" y="0" x="0" id="text-entity-User-818c511a-4a32-5484-ba70-875d765a9175-attr-4-key" class="er entityLabel"/><rect height="22" width="47.21253967285156" y="90" x="112.41122436523438" class="er attributeBoxEven"/><text style="dominant-baseline: middle; font-size: 10.2px;" transform="translate(117.41122436523438,101)" y="0" x="0" id="text-entity-User-818c511a-4a32-5484-ba70-875d765a9175-attr-4-comment" class="er entityLabel"/></g><g transform="translate(20,232 )" id="entity-Profile-65951d1c-3786-5f44-9bc8-1c33704e73ca"><rect height="68" width="131.8875732421875" y="0" x="0" class="er entityBox"/><text style="dominant-baseline: middle; text-anchor: middle; font-size: 12px;" transform="translate(65.94378662109375,12)" y="0" x="0" id="text-entity-Profile-65951d1c-3786-5f44-9bc8-1c33704e73ca" class="er entityLabel">Profile</text><rect height="22" width="37.39605712890625" y="24" x="0" class="er attributeBoxOdd"/><text style="dominant-baseline: middle; font-size: 10.2px;" transform="translate(5,35)" y="0" x="0" id="text-entity-Profile-65951d1c-3786-5f44-9bc8-1c33704e73ca-attr-1-type" class="er entityLabel">Int</text><rect height="22" width="24.591293334960938" y="24" x="37.39605712890625" class="er attributeBoxOdd"/><text style="dominant-baseline: middle; font-size: 10.2px;" transform="translate(42.39605712890625,35)" y="0" x="0" id="text-entity-Profile-65951d1c-3786-5f44-9bc8-1c33704e73ca-attr-1-name" class="er entityLabel">id</text><rect height="22" width="22.68768310546875" y="24" x="61.98735046386719" class="er attributeBoxOdd"/><text style="dominant-baseline: middle; font-size: 10.2px;" transform="translate(66.98735046386719,35)" y="0" x="0" id="text-entity-Profile-65951d1c-3786-5f44-9bc8-1c33704e73ca-attr-1-key" class="er entityLabel">PK</text><rect height="22" width="47.21253967285156" y="24" x="84.67503356933594" class="er attributeBoxOdd"/><text style="dominant-baseline: middle; font-size: 10.2px;" transform="translate(89.67503356933594,35)" y="0" x="0" id="text-entity-Profile-65951d1c-3786-5f44-9bc8-1c33704e73ca-attr-1-comment" class="er entityLabel"/><rect height="22" width="37.39605712890625" y="46" x="0" class="er attributeBoxEven"/><text style="dominant-baseline: middle; font-size: 10.2px;" transform="translate(5,57)" y="0" x="0" id="text-entity-Profile-65951d1c-3786-5f44-9bc8-1c33704e73ca-attr-2-type" class="er entityLabel">String</text><rect height="22" width="24.591293334960938" y="46" x="37.39605712890625" class="er attributeBoxEven"/><text style="dominant-baseline: middle; font-size: 10.2px;" transform="translate(42.39605712890625,57)" y="0" x="0" id="text-entity-Profile-65951d1c-3786-5f44-9bc8-1c33704e73ca-attr-2-name" class="er entityLabel">bio</text><rect height="22" width="22.68768310546875" y="46" x="61.98735046386719" class="er attributeBoxEven"/><text style="dominant-baseline: middle; font-size: 10.2px;" transform="translate(66.98735046386719,57)" y="0" x="0" id="text-entity-Profile-65951d1c-3786-5f44-9bc8-1c33704e73ca-attr-2-key" class="er entityLabel"/><rect height="22" width="47.21253967285156" y="46" x="84.67503356933594" class="er attributeBoxEven"/><text style="dominant-baseline: middle; font-size: 10.2px;" transform="translate(89.67503356933594,57)" y="0" x="0" id="text-entity-Profile-65951d1c-3786-5f44-9bc8-1c33704e73ca-attr-2-comment" class="er entityLabel">nullable</text></g><g transform="translate(486.2391357421875,444 )" id="entity-Category-1a07ff93-e37c-5c4b-81d2-6cefab6d4eed"><rect height="68" width="100" y="0" x="0" class="er entityBox"/><text style="dominant-baseline: middle; text-anchor: middle; font-size: 12px;" transform="translate(50,12)" y="0" x="0" id="text-entity-Category-1a07ff93-e37c-5c4b-81d2-6cefab6d4eed" class="er entityLabel">Category</text><rect height="22" width="38.90184020996094" y="24" x="0" class="er attributeBoxOdd"/><text style="dominant-baseline: middle; font-size: 10.2px;" transform="translate(5,35)" y="0" x="0" id="text-entity-Category-1a07ff93-e37c-5c4b-81d2-6cefab6d4eed-attr-1-type" class="er entityLabel">Int</text><rect height="22" width="36.904693603515625" y="24" x="38.90184020996094" class="er attributeBoxOdd"/><text style="dominant-baseline: middle; font-size: 10.2px;" transform="translate(43.90184020996094,35)" y="0" x="0" id="text-entity-Category-1a07ff93-e37c-5c4b-81d2-6cefab6d4eed-attr-1-name" class="er entityLabel">id</text><rect height="22" width="24.193466186523438" y="24" x="75.80653381347656" class="er attributeBoxOdd"/><text style="dominant-baseline: middle; font-size: 10.2px;" transform="translate(80.80653381347656,35)" y="0" x="0" id="text-entity-Category-1a07ff93-e37c-5c4b-81d2-6cefab6d4eed-attr-1-key" class="er entityLabel">PK</text><rect height="22" width="38.90184020996094" y="46" x="0" class="er attributeBoxEven"/><text style="dominant-baseline: middle; font-size: 10.2px;" transform="translate(5,57)" y="0" x="0" id="text-entity-Category-1a07ff93-e37c-5c4b-81d2-6cefab6d4eed-attr-2-type" class="er entityLabel">String</text><rect height="22" width="36.904693603515625" y="46" x="38.90184020996094" class="er attributeBoxEven"/><text style="dominant-baseline: middle; font-size: 10.2px;" transform="translate(43.90184020996094,57)" y="0" x="0" id="text-entity-Category-1a07ff93-e37c-5c4b-81d2-6cefab6d4eed-attr-2-name" class="er entityLabel">name</text><rect height="22" width="24.193466186523438" y="46" x="75.80653381347656" class="er attributeBoxEven"/><text style="dominant-baseline: middle; font-size: 10.2px;" transform="translate(80.80653381347656,57)" y="0" x="0" id="text-entity-Category-1a07ff93-e37c-5c4b-81d2-6cefab6d4eed-attr-2-key" class="er entityLabel"/></g><g transform="translate(451.8875732421875,210 )" id="entity-Product-8913f459-c6e1-5923-8b2e-55129fac4b99"><rect height="112" width="168.703125" y="0" x="0" class="er entityBox"/><text style="dominant-baseline: middle; text-anchor: middle; font-size: 12px;" transform="translate(84.3515625,12)" y="0" x="0" id="text-entity-Product-8913f459-c6e1-5923-8b2e-55129fac4b99" class="er entityLabel">Product</text><rect height="22" width="37.39605712890625" y="24" x="0" class="er attributeBoxOdd"/><text style="dominant-baseline: middle; font-size: 10.2px;" transform="translate(5,35)" y="0" x="0" id="text-entity-Product-8913f459-c6e1-5923-8b2e-55129fac4b99-attr-1-type" class="er entityLabel">Int</text><rect height="22" width="61.40684509277344" y="24" x="37.39605712890625" class="er attributeBoxOdd"/><text style="dominant-baseline: middle; font-size: 10.2px;" transform="translate(42.39605712890625,35)" y="0" x="0" id="text-entity-Product-8913f459-c6e1-5923-8b2e-55129fac4b99-attr-1-name" class="er entityLabel">id</text><rect height="22" width="22.68768310546875" y="24" x="98.80290222167969" class="er attributeBoxOdd"/><text style="dominant-baseline: middle; font-size: 10.2px;" transform="translate(103.80290222167969,35)" y="0" x="0" id="text-entity-Product-8913f459-c6e1-5923-8b2e-55129fac4b99-attr-1-key" class="er entityLabel">PK</text><rect height="22" width="47.21253967285156" y="24" x="121.49058532714844" class="er attributeBoxOdd"/><text style="dominant-baseline: middle; font-size: 10.2px;" transform="translate(126.49058532714844,35)" y="0" x="0" id="text-entity-Product-8913f459-c6e1-5923-8b2e-55129fac4b99-attr-1-comment" class="er entityLabel"/><rect height="22" width="37.39605712890625" y="46" x="0" class="er attributeBoxEven"/><text style="dominant-baseline: middle; font-size: 10.2px;" transform="translate(5,57)" y="0" x="0" id="text-entity-Product-8913f459-c6e1-5923-8b2e-55129fac4b99-attr-2-type" class="er entityLabel">String</text><rect height="22" width="61.40684509277344" y="46" x="37.39605712890625" class="er attributeBoxEven"/><text style="dominant-baseline: middle; font-size: 10.2px;" transform="translate(42.39605712890625,57)" y="0" x="0" id="text-entity-Product-8913f459-c6e1-5923-8b2e-55129fac4b99-attr-2-name" class="er entityLabel">name</text><rect height="22" width="22.68768310546875" y="46" x="98.80290222167969" class="er attributeBoxEven"/><text style="dominant-baseline: middle; font-size: 10.2px;" transform="translate(103.80290222167969,57)" y="0" x="0" id="text-entity-Product-8913f459-c6e1-5923-8b2e-55129fac4b99-attr-2-key" class="er entityLabel"/><rect height="22" width="47.21253967285156" y="46" x="121.49058532714844" class="er attributeBoxEven"/><text style="dominant-baseline: middle; font-size: 10.2px;" transform="translate(126.49058532714844,57)" y="0" x="0" id="text-entity-Product-8913f459-c6e1-5923-8b2e-55129fac4b99-attr-2-comment" class="er entityLabel"/><rect height="22" width="37.39605712890625" y="68" x="0" class="er attributeBoxOdd"/><text style="dominant-baseline: middle; font-size: 10.2px;" transform="translate(5,79)" y="0" x="0" id="text-entity-Product-8913f459-c6e1-5923-8b2e-55129fac4b99-attr-3-type" class="er entityLabel">String</text><rect height="22" width="61.40684509277344" y="68" x="37.39605712890625" class="er attributeBoxOdd"/><text style="dominant-baseline: middle; font-size: 10.2px;" transform="translate(42.39605712890625,79)" y="0" x="0" id="text-entity-Product-8913f459-c6e1-5923-8b2e-55129fac4b99-attr-3-name" class="er entityLabel">description</text><rect height="22" width="22.68768310546875" y="68" x="98.80290222167969" class="er attributeBoxOdd"/><text style="dominant-baseline: middle; font-size: 10.2px;" transform="translate(103.80290222167969,79)" y="0" x="0" id="text-entity-Product-8913f459-c6e1-5923-8b2e-55129fac4b99-attr-3-key" class="er entityLabel"/><rect height="22" width="47.21253967285156" y="68" x="121.49058532714844" class="er attributeBoxOdd"/><text style="dominant-baseline: middle; font-size: 10.2px;" transform="translate(126.49058532714844,79)" y="0" x="0" id="text-entity-Product-8913f459-c6e1-5923-8b2e-55129fac4b99-attr-3-comment" class="er entityLabel">nullable</text><rect height="22" width="37.39605712890625" y="90" x="0" class="er attributeBoxEven"/><text style="dominant-baseline: middle; font-size: 10.2px;" transform="translate(5,101)" y="0" x="0" id="text-entity-Product-8913f459-c6e1-5923-8b2e-55129fac4b99-attr-4-type" class="er entityLabel">Float</text><rect height="22" width="61.40684509277344" y="90" x="37.39605712890625" class="er attributeBoxEven"/><text style="dominant-baseline: middle; font-size: 10.2px;" transform="translate(42.39605712890625,101)" y="0" x="0" id="text-entity-Product-8913f459-c6e1-5923-8b2e-55129fac4b99-attr-4-name" class="er entityLabel">price</text><rect height="22" width="22.68768310546875" y="90" x="98.80290222167969" class="er attributeBoxEven"/><text style="dominant-baseline: middle; font-size: 10.2px;" transform="translate(103.80290222167969,101)" y="0" x="0" id="text-entity-Product-8913f459-c6e1-5923-8b2e-55129fac4b99-attr-4-key" class="er entityLabel"/><rect height="22" width="47.21253967285156" y="90" x="121.49058532714844" class="er attributeBoxEven"/><text style="dominant-baseline: middle; font-size: 10.2px;" transform="translate(126.49058532714844,101)" y="0" x="0" id="text-entity-Product-8913f459-c6e1-5923-8b2e-55129fac4b99-attr-4-comment" class="er entityLabel"/></g><g transform="translate(366.0297622680664,20 )" id="entity-OrderItem-4d4ac7c9-a974-525a-a211-bd0d8afb3983"><rect height="90" width="106.06718444824219" y="0" x="0" class="er entityBox"/><text style="dominant-baseline: middle; text-anchor: middle; font-size: 12px;" transform="translate(53.033592224121094,12)" y="0" x="0" id="text-entity-OrderItem-4d4ac7c9-a974-525a-a211-bd0d8afb3983" class="er entityLabel">OrderItem</text><rect height="22" width="34.1947021484375" y="24" x="0" class="er attributeBoxOdd"/><text style="dominant-baseline: middle; font-size: 10.2px;" transform="translate(5,35)" y="0" x="0" id="text-entity-OrderItem-4d4ac7c9-a974-525a-a211-bd0d8afb3983-attr-1-type" class="er entityLabel">Int</text><rect height="22" width="49.18479919433594" y="24" x="34.1947021484375" class="er attributeBoxOdd"/><text style="dominant-baseline: middle; font-size: 10.2px;" transform="translate(39.1947021484375,35)" y="0" x="0" id="text-entity-OrderItem-4d4ac7c9-a974-525a-a211-bd0d8afb3983-attr-1-name" class="er entityLabel">id</text><rect height="22" width="22.68768310546875" y="24" x="83.37950134277344" class="er attributeBoxOdd"/><text style="dominant-baseline: middle; font-size: 10.2px;" transform="translate(88.37950134277344,35)" y="0" x="0" id="text-entity-OrderItem-4d4ac7c9-a974-525a-a211-bd0d8afb3983-attr-1-key" class="er entityLabel">PK</text><rect height="22" width="34.1947021484375" y="46" x="0" class="er attributeBoxEven"/><text style="dominant-baseline: middle; font-size: 10.2px;" transform="translate(5,57)" y="0" x="0" id="text-entity-OrderItem-4d4ac7c9-a974-525a-a211-bd0d8afb3983-attr-2-type" class="er entityLabel">Int</text><rect height="22" width="49.18479919433594" y="46" x="34.1947021484375" class="er attributeBoxEven"/><text style="dominant-baseline: middle; font-size: 10.2px;" transform="translate(39.1947021484375,57)" y="0" x="0" id="text-entity-OrderItem-4d4ac7c9-a974-525a-a211-bd0d8afb3983-attr-2-name" class="er entityLabel">quantity</text><rect height="22" width="22.68768310546875" y="46" x="83.37950134277344" class="er attributeBoxEven"/><text style="dominant-baseline: middle; font-size: 10.2px;" transform="translate(88.37950134277344,57)" y="0" x="0" id="text-entity-OrderItem-4d4ac7c9-a974-525a-a211-bd0d8afb3983-attr-2-key" class="er entityLabel"/><rect height="22" width="34.1947021484375" y="68" x="0" class="er attributeBoxOdd"/><text style="dominant-baseline: middle; font-size: 10.2px;" transform="translate(5,79)" y="0" x="0" id="text-entity-OrderItem-4d4ac7c9-a974-525a-a211-bd0d8afb3983-attr-3-type" class="er entityLabel">Float</text><rect height="22" width="49.18479919433594" y="68" x="34.1947021484375" class="er attributeBoxOdd"/><text style="dominant-baseline: middle; font-size: 10.2px;" transform="translate(39.1947021484375,79)" y="0" x="0" id="text-entity-OrderItem-4d4ac7c9-a974-525a-a211-bd0d8afb3983-attr-3-name" class="er entityLabel">price</text><rect height="22" width="22.68768310546875" y="68" x="83.37950134277344" class="er attributeBoxOdd"/><text style="dominant-baseline: middle; font-size: 10.2px;" transform="translate(88.37950134277344,79)" y="0" x="0" id="text-entity-OrderItem-4d4ac7c9-a974-525a-a211-bd0d8afb3983-attr-3-key" class="er entityLabel"/></g><g transform="translate(251.8875732421875,243 )" id="entity-Order-3ec22774-e93b-529c-bc12-1dfdb28f8e64"><rect height="46" width="100" y="0" x="0" class="er entityBox"/><text style="dominant-baseline: middle; text-anchor: middle; font-size: 12px;" transform="translate(50,12)" y="0" x="0" id="text-entity-Order-3ec22774-e93b-529c-bc12-1dfdb28f8e64" class="er entityLabel">Order</text><rect height="22" width="35.07591247558594" y="24" x="0" class="er attributeBoxOdd"/><text style="dominant-baseline: middle; font-size: 10.2px;" transform="translate(5,35)" y="0" x="0" id="text-entity-Order-3ec22774-e93b-529c-bc12-1dfdb28f8e64-attr-1-type" class="er entityLabel">Int</text><rect height="22" width="30.572494506835938" y="24" x="35.07591247558594" class="er attributeBoxOdd"/><text style="dominant-baseline: middle; font-size: 10.2px;" transform="translate(40.07591247558594,35)" y="0" x="0" id="text-entity-Order-3ec22774-e93b-529c-bc12-1dfdb28f8e64-attr-1-name" class="er entityLabel">id</text><rect height="22" width="34.351593017578125" y="24" x="65.64840698242188" class="er attributeBoxOdd"/><text style="dominant-baseline: middle; font-size: 10.2px;" transform="translate(70.64840698242188,35)" y="0" x="0" id="text-entity-Order-3ec22774-e93b-529c-bc12-1dfdb28f8e64-attr-1-key" class="er entityLabel">PK</text></g><rect height="14" width="25.18359375" y="361.1352233886719" x="81.75801086425781" class="er relationshipLabelBox"/><text style="text-anchor: middle; dominant-baseline: middle; font-size: 12px;" y="368.1352233886719" x="94.34980773925781" id="rel1" class="er relationshipLabel">User</text><rect height="14" width="47.67578125" y="376" x="512.4012451171875" class="er relationshipLabelBox"/><text style="text-anchor: middle; dominant-baseline: middle; font-size: 12px;" y="383" x="536.2391357421875" id="rel2" class="er relationshipLabel">category</text><rect height="14" width="31.98046875" y="158.29824829101562" x="296.5252685546875" class="er relationshipLabelBox"/><text style="text-anchor: middle; dominant-baseline: middle; font-size: 12px;" y="165.29824829101562" x="312.5155029296875" id="rel3" class="er relationshipLabel">Order</text><rect height="14" width="41.416015625" y="143.64251708984375" x="498.26544189453125" class="er relationshipLabelBox"/><text style="text-anchor: middle; dominant-baseline: middle; font-size: 12px;" y="150.64251708984375" x="518.9734497070312" id="rel4" class="er relationshipLabel">Product</text><rect height="14" width="23.958984375" y="355.7632141113281" x="282.75543212890625" class="er relationshipLabelBox"/><text style="text-anchor: middle; dominant-baseline: middle; font-size: 12px;" y="362.7632141113281" x="294.73492431640625" id="rel5" class="er relationshipLabel">user</text></svg>